<?xml version="1.0" encoding="iso-8859-1"?>
<!-- Generator: Adobe Illustrator 19.0.0, SVG Export Plug-In . SVG Version: 6.00 Build 0)  -->
<svg version="1.1" id="Layer_1" xmlns="http://www.w3.org/2000/svg" xmlns:xlink="http://www.w3.org/1999/xlink" x="0px" y="0px"
	 viewBox="0 0 511.179 511.179" style="enable-background:new 0 0 511.179 511.179;" xml:space="preserve">
<g transform="translate(1 1)">
	<g>
		<g>
			<path d="M415.587,190.83c-18.224-7.81-37.315-12.149-56.407-10.414c12.149-20.827,17.356-43.39,16.488-67.688
				C372.198,51.114,320.998,0.782,260.252-0.953c-33.844-0.868-65.085,10.414-89.383,33.844
				c-24.298,23.43-37.315,54.671-37.315,87.647c0,20.827,6.075,42.522,16.488,60.746c-19.091-1.736-38.183,1.736-56.407,10.414
				c-43.39,19.959-72.027,62.481-72.895,108.475c-0.868,32.976,11.281,63.349,34.712,86.78c23.431,23.43,53.803,36.447,86.78,36.447
				c25.166,0,49.464-7.81,69.424-21.695v14.753c0,13.885-4.339,28.637-11.281,40.786l-15.62,26.902
				c-3.471,5.207-2.603,12.149,0,17.356c2.603,5.207,8.678,8.678,14.753,8.678h109.342c6.075,0,11.281-3.471,14.753-8.678
				c3.471-5.207,3.471-12.149,0-17.356l-14.753-27.769c-7.81-12.149-11.281-26.034-11.281-40.786v-14.753
				c19.959,13.885,44.258,21.695,69.424,21.695c32.976,0,63.349-13.017,86.78-36.447c22.563-23.431,34.712-53.803,34.712-86.78
				C487.614,254.179,458.977,210.789,415.587,190.83z M440.753,374.802c-19.091,19.959-45.993,31.241-73.763,31.241
				c-26.902,0-52.068-10.414-72.027-29.505l-14.753-13.885v53.803c0,17.356,4.339,34.712,13.017,49.464l15.62,26.902H199.506
				l15.62-26.902c8.678-14.753,13.017-32.108,13.017-49.464v-53.803l-14.753,13.885c-19.092,19.092-45.125,29.505-72.027,29.505
				c-27.77,0-54.671-11.281-73.763-31.241c-19.959-19.959-30.373-46.861-30.373-74.63c0-39.919,25.166-76.366,62.481-93.722
				c21.695-9.546,42.522-11.281,65.953-6.075l26.034,6.075l-17.356-19.959c-15.62-18.224-24.298-42.522-24.298-66.82
				c0-28.637,11.281-55.539,32.109-75.498c20.827-19.092,47.729-29.505,76.366-28.637c52.936,1.736,97.193,45.125,99.797,98.061
				c1.736,26.902-6.942,52.936-24.298,72.895l-17.356,19.959l26.034-6.075c23.43-6.075,44.258-3.471,65.953,6.075
				c37.315,18.224,61.614,54.671,62.481,93.722C471.126,327.941,460.713,354.843,440.753,374.802z"/>
			<path d="M445.092,292.362c-5.207,0-8.678,3.471-8.678,8.678c0,18.224-6.942,35.58-19.959,49.464
				c-13.017,13.885-30.373,20.827-49.464,20.827c-5.207,0-8.678,3.471-8.678,8.678s3.471,8.678,8.678,8.678
				c23.431,0,45.125-9.546,61.614-25.166c16.488-17.356,25.166-39.051,25.166-62.481
				C453.77,295.833,449.431,292.362,445.092,292.362z"/>
		</g>
	</g>
</g>
<g>
</g>
<g>
</g>
<g>
</g>
<g>
</g>
<g>
</g>
<g>
</g>
<g>
</g>
<g>
</g>
<g>
</g>
<g>
</g>
<g>
</g>
<g>
</g>
<g>
</g>
<g>
</g>
<g>
</g>
</svg>
