<?xml version="1.0" encoding="iso-8859-1"?>
<!-- Generator: Adobe Illustrator 19.0.0, SVG Export Plug-In . SVG Version: 6.00 Build 0)  -->
<svg version="1.1" id="Layer_1" xmlns="http://www.w3.org/2000/svg" xmlns:xlink="http://www.w3.org/1999/xlink" x="0px" y="0px"
	 viewBox="0 0 505.173 505.173" style="enable-background:new 0 0 505.173 505.173;" xml:space="preserve">
<g transform="translate(2 2)">
	<g>
		<g>
			<path d="M250.587-2L43.227,250.587l207.36,252.587l207.36-252.587L250.587-2z M65.413,250.587l185.173-225.28l185.173,225.28
				l-185.173,225.28L65.413,250.587z"/>
			<path d="M315.44,354.693c-3.413-2.56-9.387-1.707-11.947,1.707l-59.733,74.24c-2.56,3.413-1.707,9.387,1.707,11.947
				c1.707,0.853,3.413,1.707,5.12,1.707c2.56,0,5.12-0.853,6.827-3.413l59.733-74.24
				C319.707,363.227,318.853,357.253,315.44,354.693z"/>
		</g>
	</g>
</g>
<g>
</g>
<g>
</g>
<g>
</g>
<g>
</g>
<g>
</g>
<g>
</g>
<g>
</g>
<g>
</g>
<g>
</g>
<g>
</g>
<g>
</g>
<g>
</g>
<g>
</g>
<g>
</g>
<g>
</g>
</svg>
