<?xml version="1.0" encoding="iso-8859-1"?>
<!-- Generator: Adobe Illustrator 19.0.0, SVG Export Plug-In . SVG Version: 6.00 Build 0)  -->
<svg version="1.1" id="Layer_1" xmlns="http://www.w3.org/2000/svg" xmlns:xlink="http://www.w3.org/1999/xlink" x="0px" y="0px"
	 viewBox="0 0 511.573 511.573" style="enable-background:new 0 0 511.573 511.573;" xml:space="preserve">
<g transform="translate(1 1)">
	<g>
		<g>
			<path d="M439.816,181.187L276.829,7.96c-12.8-11.947-31.573-11.947-44.373,0L66.909,180.333
				c-46.08,42.667-55.467,107.52-23.04,166.4c22.187,40.96,64,68.267,110.08,69.973c29.013,1.707,41.813-7.68,58.88-23.04v24.747
				c0,13.653-4.267,28.16-11.093,40.107l-15.36,26.453c-3.413,5.12-3.413,11.947,0,17.067c2.56,5.12,8.533,8.533,14.507,8.533
				h107.52c5.973,0,11.093-3.413,14.507-8.533c3.413-5.12,3.413-11.947,0-17.067l-15.36-25.6
				c-7.68-11.947-11.093-25.6-11.093-40.107V394.52c15.36,14.507,27.307,23.893,57.173,23.04
				c45.227-1.707,87.04-26.453,110.08-64.853C506.376,281.88,477.362,216.173,439.816,181.187z M449.202,344.173
				c-19.627,33.28-56.32,54.613-95.573,56.32c-23.893,1.707-31.573-5.973-46.933-20.48l-0.853-0.853
				c-4.267-4.267-10.24-5.973-16.213-3.413s-9.387,7.68-9.387,13.653v29.013c0,17.067,4.267,34.133,12.8,48.64l15.36,26.453h-107.52
				l15.36-27.307c8.533-14.507,12.8-31.573,12.8-48.64v-29.013c0-5.973-3.413-11.093-9.387-13.653
				c-1.707-0.853-4.267-0.853-5.973-0.853c-3.413,0-7.68,1.707-11.093,4.267c-16.213,15.36-24.747,22.187-49.493,21.333
				c-39.253-1.707-75.947-24.747-95.573-61.44C30.215,287,37.895,229.827,78.855,192.28L244.402,19.907
				c5.973-5.973,15.36-5.973,20.48-0.853l162.987,174.933C461.149,224.707,486.749,282.733,449.202,344.173z"/>
			<path d="M441.522,242.627c-1.707-4.267-6.827-5.973-11.093-4.267s-5.973,6.827-4.267,11.093c11.093,25.6,8.533,51.2-5.973,75.947
				c-7.68,13.653-20.48,25.6-35.84,32.427c-10.24,4.267-20.48,6.827-31.573,7.68c-5.12,0-8.533,3.413-8.533,8.533
				s4.267,8.533,8.533,8.533c13.653-0.853,26.453-3.413,38.4-9.387c17.92-8.533,33.28-22.187,43.52-39.253
				C452.616,304.92,454.322,273.347,441.522,242.627z"/>
		</g>
	</g>
</g>
<g>
</g>
<g>
</g>
<g>
</g>
<g>
</g>
<g>
</g>
<g>
</g>
<g>
</g>
<g>
</g>
<g>
</g>
<g>
</g>
<g>
</g>
<g>
</g>
<g>
</g>
<g>
</g>
<g>
</g>
</svg>
